<svg xmlns="http://www.w3.org/2000/svg" fill="none" viewBox="0 0 42 25">
  <path fill="#fff" fill-rule="evenodd" d="M0 15.34V1.32c.01-.67.11-.98 1-1h25.82a1 1 0 0 1 .93.63l1.75 4.38c.68 1.3 1.26 1.69 2.5 2l7.18 1.35a1 1 0 0 1 .82.98v3.68s-2-2.5-5.5-2-5 3.5-5 3.5H12s-1.5-4-6-3.5-5.5 4-5.5 4H0ZM6.5 3.32v2a1 1 0 0 0 1 1h5a1 1 0 0 0 1-1v-2a1 1 0 0 0-1-1h-5a1 1 0 0 0-1 1Zm14 2v-3a1 1 0 0 1 1-1h2.16a1 1 0 0 1 .92.6l1.31 3a1 1 0 0 1-.92 1.4H21.5a1 1 0 0 1-1-1Zm5.57-4h.5a1 1 0 0 1 .91.59L29 5.22a.78.78 0 0 1-1.42.65l-1.84-4.03a.37.37 0 0 1 .33-.52Z" clip-rule="evenodd"/>
  <path fill="#fff" fill-rule="evenodd" d="M6.5 24.35a6 6 0 1 0 0-12 6 6 0 0 0 0 12Zm0-3a3 3 0 1 0 0-6 3 3 0 0 0 0 6Zm29 3a6 6 0 1 0 0-12 6 6 0 0 0 0 12Zm0-3a3 3 0 1 0 0-6 3 3 0 0 0 0 6Z" clip-rule="evenodd"/>
  <circle cx="6.5" cy="18.34" r="2" fill="#fff"/>
  <circle cx="35.5" cy="18.34" r="2" fill="#fff"/>
</svg>
