<svg xmlns="http://www.w3.org/2000/svg" fill="none" viewBox="0 0 30 30">
  <path fill="#fff" d="M6.87 13.75C1.21 13.75 0 12.54 0 6.87 0 1.21 1.21 0 6.87 0c5.67 0 6.88 1.21 6.88 6.87 0 5.67-1.21 6.88-6.88 6.88Zm0 16.25C1.21 30 0 28.79 0 23.12c0-5.66 1.21-6.87 6.87-6.87 5.67 0 6.88 1.21 6.88 6.88 0 5.66-1.21 6.87-6.88 6.87Zm9.38-6.87c0 5.66 1.21 6.87 6.88 6.87 5.66 0 6.87-1.21 6.87-6.88 0-5.66-1.21-6.87-6.88-6.87-5.66 0-6.87 1.21-6.87 6.88ZM24.38 2.5a1.25 1.25 0 1 0-2.5 0v3.12h-3.13a1.25 1.25 0 1 0 0 2.5h3.13v3.13a1.25 1.25 0 0 0 2.5 0V8.12h3.12a1.25 1.25 0 0 0 0-2.5h-3.13V2.5Z"/>
</svg>
